<?xml version="1.0" encoding="UTF-8"?>
<svg id="Social_Share_Buttons" data-name="Social Share Buttons" xmlns="http://www.w3.org/2000/svg" xmlns:xlink="http://www.w3.org/1999/xlink" viewBox="0 0 932 288">
  <defs>
    <style>
      .cls-1 {
        fill: url(#radial-gradient-7);
      }

      .cls-2 {
        fill: url(#radial-gradient-6);
      }

      .cls-3 {
        fill: url(#radial-gradient-5);
      }

      .cls-4 {
        fill: url(#radial-gradient-4);
      }

      .cls-5 {
        fill: url(#radial-gradient-8);
      }

      .cls-6 {
        fill: url(#radial-gradient-3);
      }

      .cls-7 {
        fill: url(#radial-gradient-2);
      }

      .cls-8 {
        fill: #bbcfda;
      }

      .cls-9 {
        fill: #842123;
      }

      .cls-10 {
        fill: url(#radial-gradient);
      }

      .cls-11 {
        fill: #fff;
      }

      .cls-12 {
        fill: #ff6101;
      }

      .cls-13 {
        fill: #ffc49c;
      }

      .cls-14 {
        fill: #ff4500;
      }
    </style>
    <radialGradient id="radial-gradient" cx="64.38" cy="151.59" fx="64.38" fy="142.47" r="127.45" gradientTransform="translate(0 19.13) scale(1 .87)" gradientUnits="userSpaceOnUse">
      <stop offset="0" stop-color="#feffff"/>
      <stop offset=".4" stop-color="#feffff"/>
      <stop offset=".51" stop-color="#f9fcfc"/>
      <stop offset=".62" stop-color="#edf3f5"/>
      <stop offset=".7" stop-color="#dee9ec"/>
      <stop offset=".72" stop-color="#d8e4e8"/>
      <stop offset=".76" stop-color="#ccd8df"/>
      <stop offset=".8" stop-color="#c8d5dd"/>
      <stop offset=".83" stop-color="#ccd6de"/>
      <stop offset=".85" stop-color="#d8dbe2"/>
      <stop offset=".88" stop-color="#ede3e9"/>
      <stop offset=".9" stop-color="#ffebef"/>
    </radialGradient>
    <radialGradient id="radial-gradient-2" cx="22013.49" cy="151.59" fx="22013.49" fy="142.47" gradientTransform="translate(22381.32 19.13) rotate(-180) scale(1 -.87)" xlink:href="#radial-gradient"/>
    <radialGradient id="radial-gradient-3" cx="220.14" cy="135.08" fx="220.14" fy="135.08" r="384.44" gradientTransform="translate(0 40.35) scale(1 .7)" xlink:href="#radial-gradient"/>
    <radialGradient id="radial-gradient-4" cx="134.7" cy="240.48" fx="134.7" fy="240.48" r="32.12" gradientTransform="translate(0 -110.04) scale(1 1.46)" gradientUnits="userSpaceOnUse">
      <stop offset="0" stop-color="#f60"/>
      <stop offset=".5" stop-color="#ff4500"/>
      <stop offset=".7" stop-color="#fc4301"/>
      <stop offset=".82" stop-color="#f43f07"/>
      <stop offset=".92" stop-color="#e53812"/>
      <stop offset="1" stop-color="#d4301f"/>
    </radialGradient>
    <radialGradient id="radial-gradient-5" cx="6191.5" cy="240.48" fx="6191.5" fy="240.48" r="32.12" gradientTransform="translate(6489.32 -110.04) rotate(-180) scale(1 -1.46)" xlink:href="#radial-gradient-4"/>
    <radialGradient id="radial-gradient-6" cx="215.93" cy="338.52" fx="215.93" fy="338.52" r="113.26" gradientTransform="translate(0 116.39) scale(1 .66)" gradientUnits="userSpaceOnUse">
      <stop offset="0" stop-color="#172e35"/>
      <stop offset=".29" stop-color="#0e1c21"/>
      <stop offset=".73" stop-color="#030708"/>
      <stop offset="1" stop-color="#000"/>
    </radialGradient>
    <radialGradient id="radial-gradient-7" cx="315.81" cy="3.47" fx="315.81" fy="3.47" r="99.42" gradientTransform="translate(0 .06) scale(1 .98)" xlink:href="#radial-gradient"/>
    <radialGradient id="radial-gradient-8" cx="274.38" cy="103.82" fx="274.38" fy="103.82" r="81.49" gradientUnits="userSpaceOnUse">
      <stop offset=".48" stop-color="#7a9299"/>
      <stop offset=".67" stop-color="#172e35"/>
      <stop offset=".75" stop-color="#000"/>
      <stop offset=".82" stop-color="#172e35"/>
    </radialGradient>
    <symbol id="Snoo_3" data-name="Snoo 3" viewBox="0 0 432.21 377.72">
      <g>
        <circle class="cls-10" cx="63.05" cy="188.55" r="63.05"/>
        <circle class="cls-7" cx="369.16" cy="188.55" r="63.05"/>
        <ellipse class="cls-6" cx="216.26" cy="242.72" rx="180" ry="135"/>
        <g>
          <path class="cls-9" d="M163.04,229.59c-1.05,22.87-16.23,31.17-33.91,31.17s-31.15-11.71-30.09-34.58c1.05-22.87,16.23-38.01,33.91-38.01s31.15,18.54,30.09,41.42Z"/>
          <path class="cls-9" d="M333.48,226.18c1.05,22.87-12.42,34.58-30.09,34.58s-32.85-8.3-33.91-31.17c-1.05-22.87,12.42-41.42,30.09-41.42s32.85,15.13,33.91,38.01Z"/>
        </g>
        <path class="cls-4" d="M163.05,231.59c-.99,21.41-15.19,29.17-31.73,29.17s-29.15-11.63-28.16-33.03c.99-21.41,15.19-35.41,31.73-35.41s29.15,17.86,28.16,39.27Z"/>
        <path class="cls-3" d="M269.47,231.59c.99,21.41,15.19,29.17,31.73,29.17,16.54,0,29.15-11.63,28.16-33.03-.99-21.41-15.19-35.41-31.73-35.41s-29.15,17.86-28.16,39.27Z"/>
        <ellipse class="cls-13" cx="145.19" cy="212.04" rx="7" ry="7.64"/>
        <ellipse class="cls-13" cx="311.64" cy="212.04" rx="7" ry="7.64"/>
        <path class="cls-8" d="M216.26,276.02c-22.32,0-43.71,1.08-63.49,3.04-3.38.34-5.52,3.78-4.21,6.86,11.08,25.97,37.22,44.21,67.7,44.21s56.62-18.24,67.7-44.21c1.31-3.08-.83-6.52-4.21-6.86-19.78-1.97-41.17-3.04-63.49-3.04Z"/>
        <path class="cls-11" d="M216.26,280.98c-22.25,0-43.57,1.09-63.29,3.09-3.37.34-5.51,3.84-4.2,6.97,11.05,26.38,37.1,44.91,67.49,44.91s56.44-18.53,67.49-44.91c1.31-3.12-.83-6.62-4.2-6.97-19.72-2-41.04-3.09-63.29-3.09Z"/>
        <path class="cls-2" d="M216.26,278.4c-21.9,0-42.89,1.08-62.3,3.04-3.32.34-5.42,3.78-4.13,6.86,10.87,25.97,36.52,44.21,66.44,44.21s55.56-18.24,66.44-44.21c1.29-3.08-.81-6.52-4.13-6.86-19.41-1.97-40.4-3.04-62.31-3.04Z"/>
        <circle class="cls-1" cx="314.84" cy="44.68" r="44.68"/>
        <path class="cls-5" d="M215.62,113.41c-5.35,0-9.69-2.24-9.69-5.69,0-40.03,32.56-72.59,72.59-72.59,5.35,0,9.69,4.34,9.69,9.69s-4.34,9.69-9.69,9.69c-29.34,0-53.22,23.87-53.22,53.22,0,3.45-4.34,5.69-9.69,5.69Z"/>
        <path class="cls-12" d="M151.29,242.18c0,8.28-8.81,12-19.69,12s-19.69-3.72-19.69-12,8.81-15,19.69-15,19.69,6.72,19.69,15Z"/>
        <path class="cls-12" d="M320.6,242.18c0,8.28-8.81,12-19.69,12s-19.69-3.72-19.69-12,8.81-15,19.69-15,19.69,6.72,19.69,15Z"/>
      </g>
    </symbol>
  </defs>
  <g>
    <path class="cls-14" d="M21.3,288h124.67v-144S15.11,273.25,15.11,273.25c-5.51,5.44-1.61,14.75,6.19,14.75Z"/>
    <rect class="cls-14" y="0" width="932" height="288" rx="144" ry="144" transform="translate(932 288) rotate(180)"/>
  </g>
  <g>
    <g>
      <path class="cls-14" d="M75.26,144h0c0,59.65,48.35,108,108,108h0c59.65,0,108-48.35,108-108h0c0-59.65-48.35-108-108-108h0c-59.65,0-108,48.35-108,108Z"/>
      <path class="cls-14" d="M94.57,252h88.69v-108l-94.34,94.34c-5.04,5.04-1.47,13.66,5.66,13.66Z"/>
    </g>
    <use width="432.21" height="377.72" transform="translate(96.82 67.55) scale(.4)" xlink:href="#Snoo_3"/>
    <g>
      <path class="cls-11" d="M329.47,114.25h17.81v-6.47c0-11.25,3.16-20.14,9.47-26.67,6.31-6.53,15.75-9.8,28.31-9.8,3.69,0,7.45.28,11.3.84s6.95,1.34,9.33,2.34l-9.75,23.91c-2.81-.94-5.38-1.41-7.69-1.41-3.44,0-6.22.98-8.34,2.95-2.12,1.97-3.16,4.92-3.09,8.86v5.44h24.66v24.56h-24.66l-.09,76.31h-29.44v-76.31h-17.81v-24.56ZM418.2,103.89c-2.72-1.53-4.84-3.66-6.38-6.38-1.53-2.72-2.3-5.73-2.3-9.05s.76-6.33,2.3-9.05c1.53-2.72,3.66-4.84,6.38-6.38,2.72-1.53,5.73-2.3,9.05-2.3s6.33.77,9.05,2.3c2.72,1.53,4.84,3.66,6.38,6.38,1.53,2.72,2.3,5.73,2.3,9.05s-.77,6.33-2.3,9.05c-1.53,2.72-3.66,4.84-6.38,6.38-2.72,1.53-5.73,2.3-9.05,2.3s-6.33-.76-9.05-2.3ZM412.44,114.25h29.62v100.88h-29.62v-100.88Z"/>
      <path class="cls-11" d="M457.72,114.25h28.78v13.22h.47c3.25-4.75,7.58-8.39,12.98-10.92,5.41-2.53,11.33-3.8,17.77-3.8s12.48,1.53,17.39,4.59c4.91,3.06,8.67,7.34,11.3,12.84,2.62,5.5,3.94,11.81,3.94,18.94v66h-29.72v-59.53c0-6-1.41-10.53-4.22-13.59-2.81-3.06-6.72-4.59-11.72-4.59s-9.13,1.61-12.38,4.83c-3.25,3.22-4.88,7.77-4.88,13.64v59.25h-29.72v-100.88Z"/>
      <path class="cls-11" d="M636.69,215.13v-12.19h-.38c-3.81,4.38-8.28,7.75-13.41,10.12-5.12,2.37-10.84,3.56-17.16,3.56-8.75,0-16.7-2.23-23.86-6.7-7.16-4.47-12.78-10.66-16.88-18.56-4.09-7.91-6.14-16.77-6.14-26.58s2.08-18.78,6.23-26.72c4.16-7.94,9.84-14.14,17.06-18.61,7.22-4.47,15.27-6.7,24.14-6.7,5.75,0,11,.95,15.75,2.86,4.75,1.91,8.94,4.64,12.56,8.2h.66v-49.69h29.62v141h-28.22ZM627.59,185.69l8.53,7.5h.56l-.09-28.41c0-5.06-1-9.61-3-13.64-2-4.03-4.83-7.19-8.48-9.47-3.66-2.28-7.86-3.42-12.61-3.42s-9.11,1.14-12.89,3.42c-3.78,2.28-6.74,5.45-8.86,9.52-2.12,4.06-3.19,8.66-3.19,13.78s1.12,9.77,3.38,13.73c2.25,3.97,5.28,7.03,9.09,9.19,3.81,2.16,7.97,3.23,12.47,3.23,6.12,0,11.16-1.81,15.09-5.44Z"/>
      <path class="cls-11" d="M729.92,103.89c-2.72-1.53-4.84-3.66-6.38-6.38-1.53-2.72-2.3-5.73-2.3-9.05s.76-6.33,2.3-9.05c1.53-2.72,3.66-4.84,6.38-6.38,2.72-1.53,5.73-2.3,9.05-2.3s6.33.77,9.05,2.3c2.72,1.53,4.84,3.66,6.38,6.38,1.53,2.72,2.3,5.73,2.3,9.05s-.77,6.33-2.3,9.05c-1.53,2.72-3.66,4.84-6.38,6.38-2.72,1.53-5.73,2.3-9.05,2.3s-6.33-.76-9.05-2.3ZM724.15,114.25h29.62v100.88h-29.62v-100.88Z"/>
      <path class="cls-11" d="M783.97,139.38h-21.47v-25.12h21.47v-29.06h29.62v29.06h21.56v25.12h-21.56v75.75h-29.62v-75.75Z"/>
    </g>
  </g>
</svg>